<svg width="29" height="29" viewBox="0 0 29 29" fill="none" xmlns="http://www.w3.org/2000/svg">
<g clip-path="url(#clip0_115_847)">
<path d="M8.76868 21.89C10.7017 21.89 12.2687 20.323 12.2687 18.39C12.2687 16.457 10.7017 14.89 8.76868 14.89C6.83568 14.89 5.26868 16.457 5.26868 18.39C5.26868 20.323 6.83568 21.89 8.76868 21.89Z" stroke="#FFC043" stroke-width="1.75" stroke-linecap="round" stroke-linejoin="round"/>
<path d="M3.51868 24.515C4.12995 23.6999 4.9226 23.0384 5.83384 22.5828C6.74508 22.1272 7.74988 21.89 8.76868 21.89C9.78747 21.89 10.7923 22.1272 11.7035 22.5828C12.6148 23.0384 13.4074 23.6999 14.0187 24.515" stroke="#FFC043" stroke-width="1.75" stroke-linecap="round" stroke-linejoin="round"/>
<path d="M8.76868 10.515C10.7017 10.515 12.2687 8.94795 12.2687 7.01495C12.2687 5.08196 10.7017 3.51495 8.76868 3.51495C6.83568 3.51495 5.26868 5.08196 5.26868 7.01495C5.26868 8.94795 6.83568 10.515 8.76868 10.515Z" stroke="#FFC043" stroke-width="1.75" stroke-linecap="round" stroke-linejoin="round"/>
<path d="M3.51868 13.14C4.12995 12.3249 4.9226 11.6634 5.83384 11.2078C6.74508 10.7522 7.74988 10.515 8.76868 10.515C9.78747 10.515 10.7923 10.7522 11.7035 11.2078C12.6148 11.6634 13.4074 12.3249 14.0187 13.14" stroke="#FFC043" stroke-width="1.75" stroke-linecap="round" stroke-linejoin="round"/>
<path d="M19.2687 21.89C21.2017 21.89 22.7687 20.323 22.7687 18.39C22.7687 16.457 21.2017 14.89 19.2687 14.89C17.3357 14.89 15.7687 16.457 15.7687 18.39C15.7687 20.323 17.3357 21.89 19.2687 21.89Z" stroke="#FFC043" stroke-width="1.75" stroke-linecap="round" stroke-linejoin="round"/>
<path d="M14.0187 24.515C14.63 23.6999 15.4226 23.0384 16.3338 22.5828C17.2451 22.1272 18.2499 21.89 19.2687 21.89C20.2875 21.89 21.2923 22.1272 22.2035 22.5828C23.1148 23.0384 23.9074 23.6999 24.5187 24.515" stroke="#FFC043" stroke-width="1.75" stroke-linecap="round" stroke-linejoin="round"/>
<path d="M19.2687 10.515C21.2017 10.515 22.7687 8.94795 22.7687 7.01495C22.7687 5.08196 21.2017 3.51495 19.2687 3.51495C17.3357 3.51495 15.7687 5.08196 15.7687 7.01495C15.7687 8.94795 17.3357 10.515 19.2687 10.515Z" stroke="#FFC043" stroke-width="1.75" stroke-linecap="round" stroke-linejoin="round"/>
<path d="M14.0187 13.14C14.63 12.3249 15.4226 11.6634 16.3338 11.2078C17.2451 10.7522 18.2499 10.515 19.2687 10.515C20.2875 10.515 21.2923 10.7522 22.2035 11.2078C23.1148 11.6634 23.9074 12.3249 24.5187 13.14" stroke="#FFC043" stroke-width="1.75" stroke-linecap="round" stroke-linejoin="round"/>
</g>
<defs>
<clipPath id="clip0_115_847">
<rect width="28" height="28" fill="white" transform="translate(0.0186768 0.0149536)"/>
</clipPath>
</defs>
</svg>
